<?xml version="1.0" encoding="utf-8"?>
<!-- Generator: Adobe Illustrator 22.0.0, SVG Export Plug-In . SVG Version: 6.00 Build 0)  -->
<svg version="1.1" id="Cut" xmlns="http://www.w3.org/2000/svg" xmlns:xlink="http://www.w3.org/1999/xlink" x="0px" y="0px"
	 viewBox="0 0 850.4 688" style="enable-background:new 0 0 850.4 688;" xml:space="preserve">
<style type="text/css">
	.st0{fill:none;stroke:#000000;stroke-width:1.000000e-03;stroke-miterlimit:10;}
	.st1{fill:none;stroke:#000000;stroke-miterlimit:10;}
</style>
<path class="st0" d="M774.2,403.4h9c4.8,0,8.8-4,8.8-8.8v-38.4c0-4.8-4-8.8-8.8-8.8h-146c-4.8,0-8.8,4-8.8,8.8v38.4
	c0,4.8,4,8.8,8.8,8.8h14.1c6.3,0,11.3,5.1,11.3,11.3v185.3c0,6.3-5.1,11.3-11.3,11.3h-14.1c-4.8,0-8.8,4-8.8,8.8v8.9
	c0,4.8,4,8.8,8.8,8.8h146c4.8,0,8.8-4,8.8-8.8v-8.9c0-4.8-4-8.8-8.8-8.8h-9c-6.3,0-11.3-5.1-11.3-11.3V414.7
	C762.9,408.5,768,403.4,774.2,403.4z M777.1,371.1c2.3,0,4.3,1.9,4.3,4.3c0,2.3-1.9,4.3-4.3,4.3s-4.3-1.9-4.3-4.3
	C772.9,373,774.8,371.1,777.1,371.1z M683.9,504.8c-3.9,0-7.1-3.2-7.1-7.1c0-3.9,3.2-7.1,7.1-7.1c3.9,0,7.1,3.2,7.1,7.1
	C691,501.6,687.8,504.8,683.9,504.8z M696,379.6c-2.3,0-4.3-1.9-4.3-4.3c0-2.3,1.9-4.3,4.3-4.3c2.3,0,4.3,1.9,4.3,4.3
	C700.3,377.7,698.4,379.6,696,379.6z M712.3,533.1c-3.9,0-7.1-3.2-7.1-7.1c0-3.9,3.2-7.1,7.1-7.1c3.9,0,7.1,3.2,7.1,7.1
	C719.4,530,716.2,533.1,712.3,533.1z M712.3,504.8c-3.9,0-7.1-3.2-7.1-7.1c0-3.9,3.2-7.1,7.1-7.1c3.9,0,7.1,3.2,7.1,7.1
	C719.4,501.6,716.2,504.8,712.3,504.8z M712.3,476.5c-3.9,0-7.1-3.2-7.1-7.1c0-3.9,3.2-7.1,7.1-7.1c3.9,0,7.1,3.2,7.1,7.1
	C719.4,473.3,716.2,476.5,712.3,476.5z M740.6,504.8c-3.9,0-7.1-3.2-7.1-7.1c0-3.9,3.2-7.1,7.1-7.1c3.9,0,7.1,3.2,7.1,7.1
	C747.7,501.6,744.5,504.8,740.6,504.8z M702.9,392.8v-34.9h67.5v34.9H702.9z"/>
<path class="st0" d="M798.6,193.2h-62.9c-3.9,0-7-6.1-7-10c0-4.3-3.5-7.9-7.9-7.9h-19.7c-4.3,0-7.9,3.5-7.9,7.9c0,3.9-3.2,10-7,10
	h-64.1c-6.6,0-12,5.4-12,12v112.4c0,6.6,5.4,12,12,12h2.2H687c3.9,0,7,6.1,7,10c0,4.3,3.5,7.9,7.9,7.9h19.7c4.3,0,7.9-3.5,7.9-7.9
	c0-3.9,3.2-10,7-10h61.9c6.6,0,12-5.4,12-12V205.2C810.6,198.6,805.2,193.2,798.6,193.2z M720.9,339.9h-19v-7.1h19V339.9z
	 M701.7,182.8h19v7.1h-19V182.8z M630.8,317c-3.9,0-7.1-3.2-7.1-7.1c0-3.9,3.2-7.1,7.1-7.1c3.9,0,7.1,3.2,7.1,7.1
	C637.8,313.8,634.7,317,630.8,317z M630.8,219.9c-3.9,0-7.1-3.2-7.1-7.1c0-3.9,3.2-7.1,7.1-7.1c3.9,0,7.1,3.2,7.1,7.1
	C637.8,216.7,634.7,219.9,630.8,219.9z M760.7,302c0,6.6-8.4,12-15,12h-73c-6.6,0-12-5.4-12-12v-80.2c0-6.6,5.4-12,12-12h76
	c6.6,0,12,5.4,12,12V302z M790.6,317c-3.9,0-7.1-3.2-7.1-7.1c0-3.9,3.2-7.1,7.1-7.1c3.9,0,7.1,3.2,7.1,7.1
	C797.7,313.8,794.5,317,790.6,317z M790.6,219.9c-3.9,0-7.1-3.2-7.1-7.1c0-3.9,3.2-7.1,7.1-7.1c3.9,0,7.1,3.2,7.1,7.1
	C797.7,216.7,794.5,219.9,790.6,219.9z"/>
<path class="st0" d="M613.4,154.1C613.5,154.2,613.5,154.2,613.4,154.1c0.5,0.5,1,0.9,1.5,1.3c0.6,0.4,1.1,0.7,1.8,1
	c0.3,0.1,0.6,0.3,0.9,0.4c1.3,0.5,2.8,0.8,4.3,0.8h64.2c3.3,1.1,5.8,6.3,5.8,9.8c0,4.3,3.5,7.9,7.9,7.9h19.7c4.3,0,7.9-3.5,7.9-7.9
	c0-3.5,2.5-8.7,5.8-9.8h65.3c6.6,0,12-5.4,12-12v0V33.3v0c0-6.6-5.4-12-12-12h-62.9c-3.9,0-7-6.1-7-10c0-4.3-3.5-7.9-7.9-7.9h-19.7
	c-4.3,0-7.9,3.5-7.9,7.9c0,3.9-3.2,10-7,10h-64.1c-6.6,0-12,5.4-12,12v112.4C609.9,149,611.3,152,613.4,154.1z M718.7,167.8h-19
	v-7.1h19V167.8z M790.4,33.9c3.8,0.1,6.9,3.2,6.9,7.1c0,3.8-3.1,7-6.9,7.1c-3.8-0.1-6.9-3.2-6.9-7.1C783.5,37.1,786.6,34,790.4,33.9
	z M790.4,130.9c3.8,0.1,6.9,3.2,6.9,7.1c0,3.8-3.1,7-6.9,7.1c-3.8-0.1-6.9-3.2-6.9-7.1C783.5,134.2,786.6,131,790.4,130.9z
	 M760.9,58.1c4.2,0,7.5,3.4,7.5,7.5c0,4.2-3.4,7.5-7.5,7.5s-7.5-3.4-7.5-7.5C753.3,61.5,756.7,58.1,760.9,58.1z M760.9,102.7
	c4.2,0,7.5,3.4,7.5,7.5s-3.4,7.5-7.5,7.5s-7.5-3.4-7.5-7.5S756.7,102.7,760.9,102.7z M701.7,10.9h19V18h-19V10.9z M623.7,138
	c0-3.8,3.1-7,6.9-7.1c3.8,0.1,6.9,3.2,6.9,7.1c0,3.8-3.1,7-6.9,7.1C626.7,145,623.7,141.8,623.7,138z M661.6,58.1
	c4.2,0,7.5,3.4,7.5,7.5c0,4.2-3.4,7.5-7.5,7.5s-7.5-3.4-7.5-7.5C654.1,61.5,657.4,58.1,661.6,58.1z M661.6,102.7
	c4.2,0,7.5,3.4,7.5,7.5s-3.4,7.5-7.5,7.5s-7.5-3.4-7.5-7.5S657.4,102.7,661.6,102.7z M630.5,33.9c3.8,0.1,6.9,3.2,6.9,7.1
	c0,3.8-3.1,7-6.9,7.1c-3.8-0.1-6.9-3.2-6.9-7.1C623.7,37.1,626.7,34,630.5,33.9z"/>
<path class="st0" d="M482.8,440.6v73.2c0,6.6,5.4,12,12,12h62.1c6.6,0,12-5.4,12-12v-73.2c0-6.6-5.4-12-12-12h-62.1
	C488.2,428.6,482.8,434,482.8,440.6z M503.5,503.9c0.9,5-3.4,9.2-8.4,8.3c-2.8-0.5-5.1-2.8-5.6-5.5c-1-5,3.4-9.2,8.4-8.3
	C500.7,498.9,502.9,501.1,503.5,503.9z M503.4,447.8c0.9,4.9-3.3,9.2-8.3,8.2c-2.8-0.5-5-2.7-5.6-5.5c-0.9-4.9,3.3-9.2,8.3-8.2
	C500.7,442.9,502.9,445.1,503.4,447.8z M560.4,503.9c0.9,5-3.4,9.2-8.4,8.3c-2.8-0.5-5.1-2.8-5.6-5.5c-1-5,3.4-9.2,8.4-8.3
	C557.6,498.9,559.9,501.1,560.4,503.9z M560.4,447.8c0.9,4.9-3.3,9.2-8.3,8.2c-2.8-0.5-5-2.7-5.6-5.5c-0.9-4.9,3.3-9.2,8.3-8.2
	C557.6,442.9,559.8,445.1,560.4,447.8z"/>
<path class="st0" d="M396.7,440.6v73.2c0,6.6,5.4,12,12,12h62.1c6.6,0,12-5.4,12-12v-73.2c0-6.6-5.4-12-12-12h-62.1
	C402.1,428.6,396.7,434,396.7,440.6z M417.4,503.9c0.9,5-3.4,9.2-8.4,8.3c-2.8-0.5-5.1-2.8-5.6-5.5c-1-5,3.4-9.2,8.4-8.3
	C414.6,498.9,416.9,501.1,417.4,503.9z M417.4,447.8c0.9,4.9-3.3,9.2-8.3,8.2c-2.8-0.5-5-2.7-5.6-5.5c-0.9-4.9,3.3-9.2,8.3-8.2
	C414.6,442.9,416.9,445.1,417.4,447.8z M474.3,503.9c0.9,5-3.4,9.2-8.4,8.3c-2.8-0.5-5.1-2.8-5.6-5.5c-1-5,3.4-9.2,8.4-8.3
	C471.5,498.9,473.8,501.1,474.3,503.9z M474.3,447.8c0.9,4.9-3.3,9.2-8.3,8.2c-2.8-0.5-5-2.7-5.6-5.5c-0.9-4.9,3.3-9.2,8.3-8.2
	C471.5,442.9,473.8,445.1,474.3,447.8z"/>
<path class="st0" d="M1.9,13.7l0,208.4c0,6.6,6.9,12,15.4,12H130c8.5,0,15.4-5.4,15.4-12V13.7c0-6.6-6.9-12-15.4-12H17.3
	C8.8,1.7,1.9,7.1,1.9,13.7z M110.1,221.1c0,2.8-2.3,5.1-5.1,5.1c-2.8,0-5.1-2.3-5.1-5.1c0-2.8,2.3-5.1,5.1-5.1
	C107.8,216,110.1,218.3,110.1,221.1z M22.3,221.1c0,2.8-2.3,5.1-5.1,5.1c-2.8,0-5.1-2.3-5.1-5.1c0-2.8,2.3-5.1,5.1-5.1
	C20,216,22.3,218.3,22.3,221.1z M96.5,177.2c0,19.6-15.9,35.4-35.4,35.4s-35.4-15.9-35.4-35.4c0-19.6,15.9-35.4,35.4-35.4
	S96.5,157.6,96.5,177.2z M110.1,133.3c0,2.8-2.3,5.1-5.1,5.1c-2.8,0-5.1-2.3-5.1-5.1c0-2.8,2.3-5.1,5.1-5.1
	C107.8,128.2,110.1,130.4,110.1,133.3z M22.3,133.3c0,2.8-2.3,5.1-5.1,5.1c-2.8,0-5.1-2.3-5.1-5.1c0-2.8,2.3-5.1,5.1-5.1
	C20,128.2,22.3,130.4,22.3,133.3z M124.9,79.4c0,3.9-3.2,7.1-7.1,7.1c-3.9,0-7.1-3.2-7.1-7.1s3.2-7.1,7.1-7.1
	C121.7,72.3,124.9,75.5,124.9,79.4z M96.5,79.4c0,3.9-3.2,7.1-7.1,7.1s-7.1-3.2-7.1-7.1s3.2-7.1,7.1-7.1S96.5,75.5,96.5,79.4z
	 M68.2,79.4c0,3.9-3.2,7.1-7.1,7.1S54,83.3,54,79.4s3.2-7.1,7.1-7.1S68.2,75.5,68.2,79.4z M124.9,22.7c0,3.9-3.2,7.1-7.1,7.1
	c-3.9,0-7.1-3.2-7.1-7.1s3.2-7.1,7.1-7.1C121.7,15.6,124.9,18.8,124.9,22.7z M96.5,22.7c0,3.9-3.2,7.1-7.1,7.1s-7.1-3.2-7.1-7.1
	c0-3.9,3.2-7.1,7.1-7.1S96.5,18.8,96.5,22.7z M68.2,22.7c0,3.9-3.2,7.1-7.1,7.1S54,26.6,54,22.7s3.2-7.1,7.1-7.1
	S68.2,18.8,68.2,22.7z"/>
<path class="st0" d="M145.4,13.7v208.4c0,6.6,6.9,12,15.4,12h112.8c8.5,0,15.4-5.4,15.4-12V13.7c0-6.6-6.9-12-15.4-12H160.8
	C152.3,1.7,145.4,7.1,145.4,13.7z M253.7,221.1c0,2.8-2.3,5.1-5.1,5.1c-2.8,0-5.1-2.3-5.1-5.1c0-2.8,2.3-5.1,5.1-5.1
	C251.4,216,253.7,218.3,253.7,221.1z M165.8,221.1c0,2.8-2.3,5.1-5.1,5.1c-2.8,0-5.1-2.3-5.1-5.1c0-2.8,2.3-5.1,5.1-5.1
	C163.5,216,165.8,218.3,165.8,221.1z M240,177.2c0,19.6-15.9,35.4-35.4,35.4s-35.4-15.9-35.4-35.4c0-19.6,15.9-35.4,35.4-35.4
	S240,157.6,240,177.2z M253.7,133.3c0,2.8-2.3,5.1-5.1,5.1c-2.8,0-5.1-2.3-5.1-5.1c0-2.8,2.3-5.1,5.1-5.1
	C251.4,128.2,253.7,130.4,253.7,133.3z M165.8,133.3c0,2.8-2.3,5.1-5.1,5.1c-2.8,0-5.1-2.3-5.1-5.1c0-2.8,2.3-5.1,5.1-5.1
	C163.5,128.2,165.8,130.4,165.8,133.3z M268.4,79.4c0,3.9-3.2,7.1-7.1,7.1c-3.9,0-7.1-3.2-7.1-7.1s3.2-7.1,7.1-7.1
	C265.2,72.3,268.4,75.5,268.4,79.4z M240,79.4c0,3.9-3.2,7.1-7.1,7.1s-7.1-3.2-7.1-7.1s3.2-7.1,7.1-7.1S240,75.5,240,79.4z
	 M211.7,79.4c0,3.9-3.2,7.1-7.1,7.1s-7.1-3.2-7.1-7.1s3.2-7.1,7.1-7.1S211.7,75.5,211.7,79.4z M268.4,22.7c0,3.9-3.2,7.1-7.1,7.1
	c-3.9,0-7.1-3.2-7.1-7.1s3.2-7.1,7.1-7.1C265.2,15.6,268.4,18.8,268.4,22.7z M240,22.7c0,3.9-3.2,7.1-7.1,7.1s-7.1-3.2-7.1-7.1
	c0-3.9,3.2-7.1,7.1-7.1S240,18.8,240,22.7z M211.7,22.7c0,3.9-3.2,7.1-7.1,7.1s-7.1-3.2-7.1-7.1s3.2-7.1,7.1-7.1
	S211.7,18.8,211.7,22.7z"/>
<path class="st0" d="M288.9,13.7v208.4c0,6.6,6.9,12,15.4,12h112.8c8.5,0,15.4-5.4,15.4-12V13.7c0-6.6-6.9-12-15.4-12H304.3
	C295.9,1.7,288.9,7.1,288.9,13.7z M397.2,221.1c0,2.8-2.3,5.1-5.1,5.1c-2.8,0-5.1-2.3-5.1-5.1c0-2.8,2.3-5.1,5.1-5.1
	C394.9,216,397.2,218.3,397.2,221.1z M309.3,221.1c0,2.8-2.3,5.1-5.1,5.1c-2.8,0-5.1-2.3-5.1-5.1c0-2.8,2.3-5.1,5.1-5.1
	C307,216,309.3,218.3,309.3,221.1z M383.6,177.2c0,19.6-15.9,35.4-35.4,35.4s-35.4-15.9-35.4-35.4c0-19.6,15.9-35.4,35.4-35.4
	S383.6,157.6,383.6,177.2z M397.2,133.3c0,2.8-2.3,5.1-5.1,5.1c-2.8,0-5.1-2.3-5.1-5.1c0-2.8,2.3-5.1,5.1-5.1
	C394.9,128.2,397.2,130.4,397.2,133.3z M309.3,133.3c0,2.8-2.3,5.1-5.1,5.1c-2.8,0-5.1-2.3-5.1-5.1c0-2.8,2.3-5.1,5.1-5.1
	C307,128.2,309.3,130.4,309.3,133.3z M411.9,79.4c0,3.9-3.2,7.1-7.1,7.1c-3.9,0-7.1-3.2-7.1-7.1s3.2-7.1,7.1-7.1
	C408.7,72.3,411.9,75.5,411.9,79.4z M383.6,79.4c0,3.9-3.2,7.1-7.1,7.1s-7.1-3.2-7.1-7.1s3.2-7.1,7.1-7.1S383.6,75.5,383.6,79.4z
	 M355.2,79.4c0,3.9-3.2,7.1-7.1,7.1s-7.1-3.2-7.1-7.1s3.2-7.1,7.1-7.1S355.2,75.5,355.2,79.4z M411.9,22.7c0,3.9-3.2,7.1-7.1,7.1
	c-3.9,0-7.1-3.2-7.1-7.1s3.2-7.1,7.1-7.1C408.7,15.6,411.9,18.8,411.9,22.7z M383.6,22.7c0,3.9-3.2,7.1-7.1,7.1s-7.1-3.2-7.1-7.1
	c0-3.9,3.2-7.1,7.1-7.1S383.6,18.8,383.6,22.7z M355.2,22.7c0,3.9-3.2,7.1-7.1,7.1s-7.1-3.2-7.1-7.1s3.2-7.1,7.1-7.1
	S355.2,18.8,355.2,22.7z"/>
<path class="st0" d="M1.9,244v170.3c0,5.4,6.9,9.8,15.4,9.8H130c8.5,0,15.4-4.4,15.4-9.8V244c0-5.4-6.9-9.8-15.4-9.8H17.3
	C8.8,234.2,1.9,238.6,1.9,244z M68.2,402.7c0,3.9-3.2,7.1-7.1,7.1s-7.1-3.2-7.1-7.1c0-3.9,3.2-7.1,7.1-7.1S68.2,398.8,68.2,402.7z
	 M124.9,312.6c0,3.9-3.2,7.1-7.1,7.1c-3.9,0-7.1-3.2-7.1-7.1s3.2-7.1,7.1-7.1C121.7,305.5,124.9,308.7,124.9,312.6z M96.5,312.6
	c0,3.9-3.2,7.1-7.1,7.1s-7.1-3.2-7.1-7.1s3.2-7.1,7.1-7.1S96.5,308.7,96.5,312.6z M68.2,312.6c0,3.9-3.2,7.1-7.1,7.1
	s-7.1-3.2-7.1-7.1s3.2-7.1,7.1-7.1S68.2,308.7,68.2,312.6z M124.9,255.9c0,3.9-3.2,7.1-7.1,7.1c-3.9,0-7.1-3.2-7.1-7.1
	c0-3.9,3.2-7.1,7.1-7.1C121.7,248.8,124.9,252,124.9,255.9z M96.5,255.9c0,3.9-3.2,7.1-7.1,7.1s-7.1-3.2-7.1-7.1
	c0-3.9,3.2-7.1,7.1-7.1S96.5,252,96.5,255.9z M68.2,255.9c0,3.9-3.2,7.1-7.1,7.1s-7.1-3.2-7.1-7.1c0-3.9,3.2-7.1,7.1-7.1
	S68.2,252,68.2,255.9z"/>
<path class="st0" d="M145.4,244v170.3c0,5.4,6.9,9.8,15.4,9.8h112.8c8.5,0,15.4-4.4,15.4-9.8V244c0-5.4-6.9-9.8-15.4-9.8H160.8
	C152.3,234.2,145.4,238.6,145.4,244z M211.7,402.7c0,3.9-3.2,7.1-7.1,7.1s-7.1-3.2-7.1-7.1c0-3.9,3.2-7.1,7.1-7.1
	S211.7,398.8,211.7,402.7z M268.4,312.6c0,3.9-3.2,7.1-7.1,7.1c-3.9,0-7.1-3.2-7.1-7.1s3.2-7.1,7.1-7.1
	C265.2,305.5,268.4,308.7,268.4,312.6z M240,312.6c0,3.9-3.2,7.1-7.1,7.1s-7.1-3.2-7.1-7.1s3.2-7.1,7.1-7.1S240,308.7,240,312.6z
	 M211.7,312.6c0,3.9-3.2,7.1-7.1,7.1s-7.1-3.2-7.1-7.1s3.2-7.1,7.1-7.1S211.7,308.7,211.7,312.6z M268.4,255.9
	c0,3.9-3.2,7.1-7.1,7.1c-3.9,0-7.1-3.2-7.1-7.1c0-3.9,3.2-7.1,7.1-7.1C265.2,248.8,268.4,252,268.4,255.9z M240,255.9
	c0,3.9-3.2,7.1-7.1,7.1s-7.1-3.2-7.1-7.1c0-3.9,3.2-7.1,7.1-7.1S240,252,240,255.9z M211.7,255.9c0,3.9-3.2,7.1-7.1,7.1
	s-7.1-3.2-7.1-7.1c0-3.9,3.2-7.1,7.1-7.1S211.7,252,211.7,255.9z"/>
<path class="st0" d="M288.9,244v170.3c0,5.4,6.9,9.8,15.4,9.8h112.8c8.5,0,15.4-4.4,15.4-9.8V244c0-5.4-6.9-9.8-15.4-9.8H304.3
	C295.9,234.2,288.9,238.6,288.9,244z M355.2,402.7c0,3.9-3.2,7.1-7.1,7.1s-7.1-3.2-7.1-7.1c0-3.9,3.2-7.1,7.1-7.1
	S355.2,398.8,355.2,402.7z M411.9,312.6c0,3.9-3.2,7.1-7.1,7.1c-3.9,0-7.1-3.2-7.1-7.1s3.2-7.1,7.1-7.1
	C408.7,305.5,411.9,308.7,411.9,312.6z M383.6,312.6c0,3.9-3.2,7.1-7.1,7.1s-7.1-3.2-7.1-7.1s3.2-7.1,7.1-7.1
	S383.6,308.7,383.6,312.6z M355.2,312.6c0,3.9-3.2,7.1-7.1,7.1s-7.1-3.2-7.1-7.1s3.2-7.1,7.1-7.1S355.2,308.7,355.2,312.6z
	 M411.9,255.9c0,3.9-3.2,7.1-7.1,7.1c-3.9,0-7.1-3.2-7.1-7.1c0-3.9,3.2-7.1,7.1-7.1C408.7,248.8,411.9,252,411.9,255.9z
	 M383.6,255.9c0,3.9-3.2,7.1-7.1,7.1s-7.1-3.2-7.1-7.1c0-3.9,3.2-7.1,7.1-7.1S383.6,252,383.6,255.9z M355.2,255.9
	c0,3.9-3.2,7.1-7.1,7.1s-7.1-3.2-7.1-7.1c0-3.9,3.2-7.1,7.1-7.1S355.2,252,355.2,255.9z"/>
<path class="st0" d="M31.1,553.2c-7.8,0-14.1,6.3-14.1,14.1c0,7.8,6.3,14.1,14.1,14.1s14.1-6.3,14.1-14.1
	C45.2,559.5,38.9,553.2,31.1,553.2z M31.1,574.4c-3.9,0-7.1-3.2-7.1-7.1c0-3.9,3.2-7.1,7.1-7.1s7.1,3.2,7.1,7.1
	C38.2,571.2,35,574.4,31.1,574.4z"/>
<path class="st0" d="M31.1,581.4c-7.8,0-14.1,6.3-14.1,14.1c0,7.8,6.3,14.1,14.1,14.1s14.1-6.3,14.1-14.1
	C45.2,587.7,38.9,581.4,31.1,581.4z M31.1,602.6c-3.9,0-7.1-3.2-7.1-7.1c0-3.9,3.2-7.1,7.1-7.1s7.1,3.2,7.1,7.1
	C38.2,599.4,35,602.6,31.1,602.6z"/>
<path class="st0" d="M31.1,609.6c-7.8,0-14.1,6.3-14.1,14.1c0,7.8,6.3,14.1,14.1,14.1s14.1-6.3,14.1-14.1
	C45.2,615.9,38.9,609.6,31.1,609.6z M31.1,630.9c-3.9,0-7.1-3.2-7.1-7.1c0-3.9,3.2-7.1,7.1-7.1s7.1,3.2,7.1,7.1
	C38.2,627.7,35,630.9,31.1,630.9z"/>
<path class="st1" d="M52.2,595.5c0,3.9,3.2,7.1,7.1,7.1c3.9,0,7.1-3.2,7.1-7.1c0-3.9-3.2-7.1-7.1-7.1
	C55.4,588.4,52.2,591.5,52.2,595.5z"/>
<path class="st1" d="M59.3,616.6c-3.9,0-7.1,3.2-7.1,7.1c0,3.9,3.2,7.1,7.1,7.1c3.9,0,7.1-3.2,7.1-7.1
	C66.5,619.8,63.3,616.6,59.3,616.6z"/>
<path class="st1" d="M59.3,560.2c-3.9,0-7.1,3.2-7.1,7.1c0,3.9,3.2,7.1,7.1,7.1c3.9,0,7.1-3.2,7.1-7.1
	C66.5,563.3,63.3,560.2,59.3,560.2z"/>
<path class="st0" d="M73.5,567.3c0-7.8-6.3-14.1-14.1-14.1c-7.8,0-14.1,6.3-14.1,14.1c0,7.7,6.2,14,13.8,14.1c0.1,0,0.2,0,0.3,0
	c0.1,0,0.2,0,0.3,0C67.3,581.2,73.5,575,73.5,567.3z M59.3,574.4c-3.9,0-7.1-3.2-7.1-7.1c0-3.9,3.2-7.1,7.1-7.1
	c3.9,0,7.1,3.2,7.1,7.1C66.5,571.2,63.3,574.4,59.3,574.4z"/>
<path class="st0" d="M59.1,581.4c-7.7,0.1-13.8,6.4-13.8,14.1c0,7.8,6.3,14.1,14.1,14.1c7.8,0,14.1-6.3,14.1-14.1
	c0-7.7-6.2-14-13.8-14.1c-0.1,0-0.2,0-0.3,0C59.3,581.4,59.2,581.4,59.1,581.4z M66.5,595.5c0,3.9-3.2,7.1-7.1,7.1
	c-3.9,0-7.1-3.2-7.1-7.1c0-3.9,3.2-7.1,7.1-7.1C63.3,588.4,66.5,591.5,66.5,595.5z"/>
<path class="st0" d="M59.1,581.4c0.1,0,0.2,0,0.3,0c0.1,0,0.2,0,0.3,0c-0.1,0-0.2,0-0.3,0C59.3,581.4,59.2,581.4,59.1,581.4z"/>
<path class="st0" d="M59.3,609.6c-7.8,0-14.1,6.3-14.1,14.1c0,7.8,6.3,14.1,14.1,14.1c7.8,0,14.1-6.3,14.1-14.1
	C73.5,615.9,67.1,609.6,59.3,609.6z M59.3,630.9c-3.9,0-7.1-3.2-7.1-7.1c0-3.9,3.2-7.1,7.1-7.1c3.9,0,7.1,3.2,7.1,7.1
	C66.5,627.7,63.3,630.9,59.3,630.9z"/>
<path class="st0" d="M87.6,553.2c-7.8,0-14.1,6.3-14.1,14.1c0,7.8,6.3,14.1,14.1,14.1s14.1-6.3,14.1-14.1
	C101.7,559.5,95.4,553.2,87.6,553.2z M87.6,574.4c-3.9,0-7.1-3.2-7.1-7.1c0-3.9,3.2-7.1,7.1-7.1s7.1,3.2,7.1,7.1
	C94.7,571.2,91.5,574.4,87.6,574.4z"/>
<path class="st0" d="M87.6,581.4c-7.8,0-14.1,6.3-14.1,14.1c0,7.8,6.3,14.1,14.1,14.1s14.1-6.3,14.1-14.1
	C101.7,587.7,95.4,581.4,87.6,581.4z M87.6,602.6c-3.9,0-7.1-3.2-7.1-7.1c0-3.9,3.2-7.1,7.1-7.1s7.1,3.2,7.1,7.1
	C94.7,599.4,91.5,602.6,87.6,602.6z"/>
<path class="st0" d="M87.6,609.6c-7.8,0-14.1,6.3-14.1,14.1c0,7.8,6.3,14.1,14.1,14.1s14.1-6.3,14.1-14.1
	C101.7,615.9,95.4,609.6,87.6,609.6z M87.6,630.9c-3.9,0-7.1-3.2-7.1-7.1c0-3.9,3.2-7.1,7.1-7.1s7.1,3.2,7.1,7.1
	C94.7,627.7,91.5,630.9,87.6,630.9z"/>
<path class="st1" d="M108.7,595.5c0,3.9,3.2,7.1,7.1,7.1c3.9,0,7.1-3.2,7.1-7.1c0-3.9-3.2-7.1-7.1-7.1
	C111.9,588.4,108.7,591.5,108.7,595.5z"/>
<path class="st1" d="M115.8,616.6c-3.9,0-7.1,3.2-7.1,7.1c0,3.9,3.2,7.1,7.1,7.1c3.9,0,7.1-3.2,7.1-7.1
	C122.9,619.8,119.7,616.6,115.8,616.6z"/>
<path class="st1" d="M115.8,560.2c-3.9,0-7.1,3.2-7.1,7.1c0,3.9,3.2,7.1,7.1,7.1c3.9,0,7.1-3.2,7.1-7.1
	C122.9,563.3,119.7,560.2,115.8,560.2z"/>
<path class="st0" d="M129.9,567.3c0-7.8-6.3-14.1-14.1-14.1c-7.8,0-14.1,6.3-14.1,14.1c0,7.7,6.2,14,13.8,14.1c0.1,0,0.2,0,0.3,0
	c0.1,0,0.2,0,0.3,0C123.8,581.2,129.9,575,129.9,567.3z M115.8,574.4c-3.9,0-7.1-3.2-7.1-7.1c0-3.9,3.2-7.1,7.1-7.1
	c3.9,0,7.1,3.2,7.1,7.1C122.9,571.2,119.7,574.4,115.8,574.4z"/>
<path class="st0" d="M115.5,581.4c-7.7,0.1-13.8,6.4-13.8,14.1c0,7.8,6.3,14.1,14.1,14.1c7.8,0,14.1-6.3,14.1-14.1
	c0-7.7-6.2-14-13.8-14.1c-0.1,0-0.2,0-0.3,0C115.7,581.4,115.6,581.4,115.5,581.4z M122.9,595.5c0,3.9-3.2,7.1-7.1,7.1
	c-3.9,0-7.1-3.2-7.1-7.1c0-3.9,3.2-7.1,7.1-7.1C119.7,588.4,122.9,591.5,122.9,595.5z"/>
<path class="st0" d="M115.5,581.4c0.1,0,0.2,0,0.3,0c0.1,0,0.2,0,0.3,0c-0.1,0-0.2,0-0.3,0C115.7,581.4,115.6,581.4,115.5,581.4z"/>
<path class="st0" d="M115.8,609.6c-7.8,0-14.1,6.3-14.1,14.1c0,7.8,6.3,14.1,14.1,14.1c7.8,0,14.1-6.3,14.1-14.1
	C129.9,615.9,123.6,609.6,115.8,609.6z M115.8,630.9c-3.9,0-7.1-3.2-7.1-7.1c0-3.9,3.2-7.1,7.1-7.1c3.9,0,7.1,3.2,7.1,7.1
	C122.9,627.7,119.7,630.9,115.8,630.9z"/>
<path class="st0" d="M31.1,637.9c-7.8,0-14.1,6.3-14.1,14.1c0,7.8,6.3,14.1,14.1,14.1s14.1-6.3,14.1-14.1
	C45.2,644.2,38.9,637.9,31.1,637.9z M31.1,659.1c-3.9,0-7.1-3.2-7.1-7.1c0-3.9,3.2-7.1,7.1-7.1s7.1,3.2,7.1,7.1
	C38.2,655.9,35,659.1,31.1,659.1z"/>
<path class="st1" d="M59.3,644.9c-3.9,0-7.1,3.2-7.1,7.1c0,3.9,3.2,7.1,7.1,7.1c3.9,0,7.1-3.2,7.1-7.1
	C66.5,648,63.3,644.9,59.3,644.9z"/>
<path class="st0" d="M59.3,637.9c-7.8,0-14.1,6.3-14.1,14.1c0,7.8,6.3,14.1,14.1,14.1c7.8,0,14.1-6.3,14.1-14.1
	C73.5,644.2,67.1,637.9,59.3,637.9z M59.3,659.1c-3.9,0-7.1-3.2-7.1-7.1c0-3.9,3.2-7.1,7.1-7.1c3.9,0,7.1,3.2,7.1,7.1
	C66.5,655.9,63.3,659.1,59.3,659.1z"/>
<path class="st0" d="M87.6,637.9c-7.8,0-14.1,6.3-14.1,14.1c0,7.8,6.3,14.1,14.1,14.1s14.1-6.3,14.1-14.1
	C101.7,644.2,95.4,637.9,87.6,637.9z M87.6,659.1c-3.9,0-7.1-3.2-7.1-7.1c0-3.9,3.2-7.1,7.1-7.1s7.1,3.2,7.1,7.1
	C94.7,655.9,91.5,659.1,87.6,659.1z"/>
<path class="st1" d="M115.8,644.9c-3.9,0-7.1,3.2-7.1,7.1c0,3.9,3.2,7.1,7.1,7.1c3.9,0,7.1-3.2,7.1-7.1
	C122.9,648,119.7,644.9,115.8,644.9z"/>
<path class="st0" d="M115.8,637.9c-7.8,0-14.1,6.3-14.1,14.1c0,7.8,6.3,14.1,14.1,14.1c7.8,0,14.1-6.3,14.1-14.1
	C129.9,644.2,123.6,637.9,115.8,637.9z M115.8,659.1c-3.9,0-7.1-3.2-7.1-7.1c0-3.9,3.2-7.1,7.1-7.1c3.9,0,7.1,3.2,7.1,7.1
	C122.9,655.9,119.7,659.1,115.8,659.1z"/>
<path class="st0" d="M146,553.2c-7.8,0-14.1,6.3-14.1,14.1c0,7.8,6.3,14.1,14.1,14.1s14.1-6.3,14.1-14.1
	C160.1,559.5,153.8,553.2,146,553.2z M146,574.4c-3.9,0-7.1-3.2-7.1-7.1c0-3.9,3.2-7.1,7.1-7.1s7.1,3.2,7.1,7.1
	C153.1,571.2,149.9,574.4,146,574.4z"/>
<path class="st0" d="M146,581.4c-7.8,0-14.1,6.3-14.1,14.1c0,7.8,6.3,14.1,14.1,14.1s14.1-6.3,14.1-14.1
	C160.1,587.7,153.8,581.4,146,581.4z M146,602.6c-3.9,0-7.1-3.2-7.1-7.1c0-3.9,3.2-7.1,7.1-7.1s7.1,3.2,7.1,7.1
	C153.1,599.4,149.9,602.6,146,602.6z"/>
<path class="st0" d="M146,609.6c-7.8,0-14.1,6.3-14.1,14.1c0,7.8,6.3,14.1,14.1,14.1s14.1-6.3,14.1-14.1
	C160.1,615.9,153.8,609.6,146,609.6z M146,630.9c-3.9,0-7.1-3.2-7.1-7.1c0-3.9,3.2-7.1,7.1-7.1s7.1,3.2,7.1,7.1
	C153.1,627.7,149.9,630.9,146,630.9z"/>
<path class="st1" d="M167.1,595.5c0,3.9,3.2,7.1,7.1,7.1c3.9,0,7.1-3.2,7.1-7.1c0-3.9-3.2-7.1-7.1-7.1
	C170.3,588.4,167.1,591.5,167.1,595.5z"/>
<path class="st1" d="M174.2,616.6c-3.9,0-7.1,3.2-7.1,7.1c0,3.9,3.2,7.1,7.1,7.1c3.9,0,7.1-3.2,7.1-7.1
	C181.3,619.8,178.1,616.6,174.2,616.6z"/>
<path class="st1" d="M174.2,560.2c-3.9,0-7.1,3.2-7.1,7.1c0,3.9,3.2,7.1,7.1,7.1c3.9,0,7.1-3.2,7.1-7.1
	C181.3,563.3,178.1,560.2,174.2,560.2z"/>
<path class="st0" d="M188.3,567.3c0-7.8-6.3-14.1-14.1-14.1c-7.8,0-14.1,6.3-14.1,14.1c0,7.7,6.2,14,13.8,14.1c0.1,0,0.2,0,0.3,0
	c0.1,0,0.2,0,0.3,0C182.2,581.2,188.3,575,188.3,567.3z M174.2,574.4c-3.9,0-7.1-3.2-7.1-7.1c0-3.9,3.2-7.1,7.1-7.1
	c3.9,0,7.1,3.2,7.1,7.1C181.3,571.2,178.1,574.4,174.2,574.4z"/>
<path class="st0" d="M173.9,581.4c-7.7,0.1-13.8,6.4-13.8,14.1c0,7.8,6.3,14.1,14.1,14.1c7.8,0,14.1-6.3,14.1-14.1
	c0-7.7-6.2-14-13.8-14.1c-0.1,0-0.2,0-0.3,0C174.1,581.4,174,581.4,173.9,581.4z M181.3,595.5c0,3.9-3.2,7.1-7.1,7.1
	c-3.9,0-7.1-3.2-7.1-7.1c0-3.9,3.2-7.1,7.1-7.1C178.1,588.4,181.3,591.5,181.3,595.5z"/>
<path class="st0" d="M173.9,581.4c0.1,0,0.2,0,0.3,0c0.1,0,0.2,0,0.3,0c-0.1,0-0.2,0-0.3,0C174.1,581.4,174,581.4,173.9,581.4z"/>
<path class="st0" d="M174.2,609.6c-7.8,0-14.1,6.3-14.1,14.1c0,7.8,6.3,14.1,14.1,14.1c7.8,0,14.1-6.3,14.1-14.1
	C188.3,615.9,182,609.6,174.2,609.6z M174.2,630.9c-3.9,0-7.1-3.2-7.1-7.1c0-3.9,3.2-7.1,7.1-7.1c3.9,0,7.1,3.2,7.1,7.1
	C181.3,627.7,178.1,630.9,174.2,630.9z"/>
<path class="st0" d="M202.4,553.2c-7.8,0-14.1,6.3-14.1,14.1c0,7.8,6.3,14.1,14.1,14.1s14.1-6.3,14.1-14.1
	C216.6,559.5,210.2,553.2,202.4,553.2z M202.4,574.4c-3.9,0-7.1-3.2-7.1-7.1c0-3.9,3.2-7.1,7.1-7.1s7.1,3.2,7.1,7.1
	C209.6,571.2,206.4,574.4,202.4,574.4z"/>
<path class="st0" d="M202.4,581.4c-7.8,0-14.1,6.3-14.1,14.1c0,7.8,6.3,14.1,14.1,14.1s14.1-6.3,14.1-14.1
	C216.6,587.7,210.2,581.4,202.4,581.4z M202.4,602.6c-3.9,0-7.1-3.2-7.1-7.1c0-3.9,3.2-7.1,7.1-7.1s7.1,3.2,7.1,7.1
	C209.6,599.4,206.4,602.6,202.4,602.6z"/>
<path class="st0" d="M202.4,609.6c-7.8,0-14.1,6.3-14.1,14.1c0,7.8,6.3,14.1,14.1,14.1s14.1-6.3,14.1-14.1
	C216.6,615.9,210.2,609.6,202.4,609.6z M202.4,630.9c-3.9,0-7.1-3.2-7.1-7.1c0-3.9,3.2-7.1,7.1-7.1s7.1,3.2,7.1,7.1
	C209.6,627.7,206.4,630.9,202.4,630.9z"/>
<path class="st1" d="M223.6,595.5c0,3.9,3.2,7.1,7.1,7.1c3.9,0,7.1-3.2,7.1-7.1c0-3.9-3.2-7.1-7.1-7.1
	C226.7,588.4,223.6,591.5,223.6,595.5z"/>
<path class="st1" d="M230.7,616.6c-3.9,0-7.1,3.2-7.1,7.1c0,3.9,3.2,7.1,7.1,7.1c3.9,0,7.1-3.2,7.1-7.1
	C237.8,619.8,234.6,616.6,230.7,616.6z"/>
<path class="st1" d="M230.7,560.2c-3.9,0-7.1,3.2-7.1,7.1c0,3.9,3.2,7.1,7.1,7.1c3.9,0,7.1-3.2,7.1-7.1
	C237.8,563.3,234.6,560.2,230.7,560.2z"/>
<path class="st0" d="M244.8,567.3c0-7.8-6.3-14.1-14.1-14.1c-7.8,0-14.1,6.3-14.1,14.1c0,7.7,6.2,14,13.8,14.1c0.1,0,0.2,0,0.3,0
	c0.1,0,0.2,0,0.3,0C238.6,581.2,244.8,575,244.8,567.3z M230.7,574.4c-3.9,0-7.1-3.2-7.1-7.1c0-3.9,3.2-7.1,7.1-7.1
	c3.9,0,7.1,3.2,7.1,7.1C237.8,571.2,234.6,574.4,230.7,574.4z"/>
<path class="st0" d="M230.4,581.4c-7.7,0.1-13.8,6.4-13.8,14.1c0,7.8,6.3,14.1,14.1,14.1c7.8,0,14.1-6.3,14.1-14.1
	c0-7.7-6.2-14-13.8-14.1c-0.1,0-0.2,0-0.3,0C230.6,581.4,230.5,581.4,230.4,581.4z M237.8,595.5c0,3.9-3.2,7.1-7.1,7.1
	c-3.9,0-7.1-3.2-7.1-7.1c0-3.9,3.2-7.1,7.1-7.1C234.6,588.4,237.8,591.5,237.8,595.5z"/>
<path class="st0" d="M230.4,581.4c0.1,0,0.2,0,0.3,0c0.1,0,0.2,0,0.3,0c-0.1,0-0.2,0-0.3,0C230.6,581.4,230.5,581.4,230.4,581.4z"/>
<path class="st0" d="M230.7,609.6c-7.8,0-14.1,6.3-14.1,14.1c0,7.8,6.3,14.1,14.1,14.1c7.8,0,14.1-6.3,14.1-14.1
	C244.8,615.9,238.5,609.6,230.7,609.6z M230.7,630.9c-3.9,0-7.1-3.2-7.1-7.1c0-3.9,3.2-7.1,7.1-7.1c3.9,0,7.1,3.2,7.1,7.1
	C237.8,627.7,234.6,630.9,230.7,630.9z"/>
<path class="st0" d="M146,637.9c-7.8,0-14.1,6.3-14.1,14.1c0,7.8,6.3,14.1,14.1,14.1s14.1-6.3,14.1-14.1
	C160.1,644.2,153.8,637.9,146,637.9z M146,659.1c-3.9,0-7.1-3.2-7.1-7.1c0-3.9,3.2-7.1,7.1-7.1s7.1,3.2,7.1,7.1
	C153.1,655.9,149.9,659.1,146,659.1z"/>
<path class="st1" d="M174.2,644.9c-3.9,0-7.1,3.2-7.1,7.1c0,3.9,3.2,7.1,7.1,7.1c3.9,0,7.1-3.2,7.1-7.1
	C181.3,648,178.1,644.9,174.2,644.9z"/>
<path class="st0" d="M174.2,637.9c-7.8,0-14.1,6.3-14.1,14.1c0,7.8,6.3,14.1,14.1,14.1c7.8,0,14.1-6.3,14.1-14.1
	C188.3,644.2,182,637.9,174.2,637.9z M174.2,659.1c-3.9,0-7.1-3.2-7.1-7.1c0-3.9,3.2-7.1,7.1-7.1c3.9,0,7.1,3.2,7.1,7.1
	C181.3,655.9,178.1,659.1,174.2,659.1z"/>
<path class="st0" d="M202.4,637.9c-7.8,0-14.1,6.3-14.1,14.1c0,7.8,6.3,14.1,14.1,14.1s14.1-6.3,14.1-14.1
	C216.6,644.2,210.2,637.9,202.4,637.9z M202.4,659.1c-3.9,0-7.1-3.2-7.1-7.1c0-3.9,3.2-7.1,7.1-7.1s7.1,3.2,7.1,7.1
	C209.6,655.9,206.4,659.1,202.4,659.1z"/>
<path class="st1" d="M230.7,644.9c-3.9,0-7.1,3.2-7.1,7.1c0,3.9,3.2,7.1,7.1,7.1c3.9,0,7.1-3.2,7.1-7.1
	C237.8,648,234.6,644.9,230.7,644.9z"/>
<path class="st0" d="M230.7,637.9c-7.8,0-14.1,6.3-14.1,14.1c0,7.8,6.3,14.1,14.1,14.1c7.8,0,14.1-6.3,14.1-14.1
	C244.8,644.2,238.5,637.9,230.7,637.9z M230.7,659.1c-3.9,0-7.1-3.2-7.1-7.1c0-3.9,3.2-7.1,7.1-7.1c3.9,0,7.1,3.2,7.1,7.1
	C237.8,655.9,234.6,659.1,230.7,659.1z"/>
<path class="st0" d="M436.4,654.4L436.4,654.4c0-1.2-1-2.2-2.2-2.2h-6c-1.6,0-2.8-1.3-2.8-2.8v-22.7c0-1.6,1.3-2.8,2.8-2.8h5.3
	c1.6,0,2.8-1.3,2.8-2.8v-27.7c0-6.6-5.4-12-12-12L264.5,626c-6.6,0-12,5.4-12,12v16.3c0,6.6,5.4,12,12,12h159.9
	C431,666.4,436.4,661,436.4,654.4z M415,636.6c0.9,5-3.3,9.3-8.3,8.3c-2.8-0.5-5-2.8-5.6-5.6c-0.9-5,3.3-9.3,8.3-8.3
	C412.2,631.6,414.4,633.8,415,636.6z M344.4,639.4c-0.9-5,3.3-9.3,8.3-8.3c2.8,0.5,5,2.8,5.6,5.6c0.9,5-3.3,9.3-8.3,8.3
	C347.1,644.4,344.9,642.2,344.4,639.4z M374.2,649.3v-22.7c0-1.6,1.3-2.8,2.8-2.8h5.3c1.6,0,2.8,1.3,2.8,2.8v22.7
	c0,1.6-1.3,2.8-2.8,2.8H377C375.4,652.2,374.2,650.9,374.2,649.3z"/>
<path class="st0" d="M252.5,552.8L252.5,552.8c0,1.2,1,2.2,2.2,2.2h6c1.6,0,2.8,1.3,2.8,2.8v22.7c0,1.6-1.3,2.8-2.8,2.8h-5.3
	c-1.6,0-2.8,1.3-2.8,2.8v27.7c0,6.6,5.4,12,12,12l159.9-44.7c6.6,0,12-5.4,12-12v-16.3c0-6.6-5.4-12-12-12H264.5
	C257.9,540.8,252.5,546.2,252.5,552.8z M273.8,570.6c-0.9-5,3.3-9.3,8.3-8.3c2.8,0.5,5,2.8,5.6,5.6c0.9,5-3.3,9.3-8.3,8.3
	C276.6,575.6,274.4,573.4,273.8,570.6z M344.4,567.8c0.9,5-3.3,9.3-8.3,8.3c-2.8-0.5-5-2.8-5.6-5.6c-0.9-5,3.3-9.3,8.3-8.3
	C341.7,562.8,343.9,565,344.4,567.8z M314.7,557.9v22.7c0,1.6-1.3,2.8-2.8,2.8h-5.3c-1.6,0-2.8-1.3-2.8-2.8v-22.7
	c0-1.6,1.3-2.8,2.8-2.8h5.3C313.4,555,314.7,556.3,314.7,557.9z"/>
<path class="st0" d="M620.3,655.3L620.3,655.3c0-1.2-1-2.2-2.2-2.2h-6c-1.6,0-2.8-1.3-2.8-2.8v-22.7c0-1.6,1.3-2.8,2.8-2.8h5.3
	c1.6,0,2.8-1.3,2.8-2.8v-27.7c0-6.6-5.4-12-12-12L448.4,627c-6.6,0-12,5.4-12,12v16.3c0,6.6,5.4,12,12,12h159.9
	C614.9,667.3,620.3,661.9,620.3,655.3z M598.9,637.6c0.9,5-3.3,9.3-8.3,8.3c-2.8-0.5-5-2.8-5.6-5.6c-0.9-5,3.3-9.3,8.3-8.3
	C596.1,632.6,598.3,634.8,598.9,637.6z M528.3,640.4c-0.9-5,3.3-9.3,8.3-8.3c2.8,0.5,5,2.8,5.6,5.6c0.9,5-3.3,9.3-8.3,8.3
	C531,645.4,528.8,643.2,528.3,640.4z M558.1,650.3v-22.7c0-1.6,1.3-2.8,2.8-2.8h5.3c1.6,0,2.8,1.3,2.8,2.8v22.7
	c0,1.6-1.3,2.8-2.8,2.8h-5.3C559.3,653.2,558.1,651.9,558.1,650.3z"/>
<path class="st0" d="M436.4,553.8L436.4,553.8c0,1.2,1,2.2,2.2,2.2h6c1.6,0,2.8,1.3,2.8,2.8v22.7c0,1.6-1.3,2.8-2.8,2.8h-5.3
	c-1.6,0-2.8,1.3-2.8,2.8v27.7c0,6.6,5.4,12,12,12l159.9-44.7c6.6,0,12-5.4,12-12v-16.3c0-6.6-5.4-12-12-12H448.4
	C441.8,541.8,436.4,547.2,436.4,553.8z M457.8,571.6c-0.9-5,3.3-9.3,8.3-8.3c2.8,0.5,5,2.8,5.6,5.6c0.9,5-3.3,9.3-8.3,8.3
	C460.5,576.6,458.3,574.4,457.8,571.6z M528.4,568.8c0.9,5-3.3,9.3-8.3,8.3c-2.8-0.5-5-2.8-5.6-5.6c-0.9-5,3.3-9.3,8.3-8.3
	C525.6,563.8,527.8,566,528.4,568.8z M498.6,558.8v22.7c0,1.6-1.3,2.8-2.8,2.8h-5.3c-1.6,0-2.8-1.3-2.8-2.8v-22.7
	c0-1.6,1.3-2.8,2.8-2.8h5.3C497.3,556,498.6,557.3,498.6,558.8z"/>
<path class="st0" d="M11.7,536H132c0,0,0,0,0,0h57.5c5.4,0,9.8-5.4,9.8-12v-88c0-6.6-4.4-12-9.8-12H69.2c0,0,0,0,0,0H11.7
	c-5.4,0-9.8,5.4-9.8,12v88C1.9,530.6,6.3,536,11.7,536z M80.5,473c3.8,0.1,6.9,3.2,6.9,7.1c0,3.8-3.1,7-6.9,7.1
	c-3.8-0.1-6.9-3.2-6.9-7.1C73.7,476.2,76.7,473.1,80.5,473z M177.6,515.5c-3.9,0-7.1-3.2-7.1-7.1c0-3.9,3.2-7.1,7.1-7.1
	s7.1,3.2,7.1,7.1C184.7,512.3,181.5,515.5,177.6,515.5z M177.6,444.6c3.9,0,7.1,3.2,7.1,7.1s-3.2,7.1-7.1,7.1s-7.1-3.2-7.1-7.1
	S173.7,444.6,177.6,444.6z M149.7,487.1c-3.9,0-7.1-3.2-7.1-7.1c0-3.9,3.2-7.1,7.1-7.1s7.1,3.2,7.1,7.1
	C156.8,484,153.7,487.1,149.7,487.1z M80.5,515.5c-3.9,0-7.1-3.2-7.1-7.1c0-3.9,3.2-7.1,7.1-7.1s7.1,3.2,7.1,7.1
	C87.6,512.3,84.5,515.5,80.5,515.5z M80.5,444.6c3.9,0,7.1,3.2,7.1,7.1s-3.2,7.1-7.1,7.1s-7.1-3.2-7.1-7.1S76.6,444.6,80.5,444.6z
	 M177.6,473c3.9,0,7.1,3.2,7.1,7.1s-3.2,7.1-7.1,7.1c-3.9,0-7.1-3.2-7.1-7.1S173.7,473,177.6,473z M23.6,444.6
	c3.9,0,7.1,3.2,7.1,7.1c0,3.9-3.2,7.1-7.1,7.1s-7.1-3.2-7.1-7.1C16.6,447.8,19.7,444.6,23.6,444.6z M23.6,473c3.9,0,7.1,3.2,7.1,7.1
	s-3.2,7.1-7.1,7.1c-3.9,0-7.1-3.2-7.1-7.1S19.7,473,23.6,473z M23.6,501.3c3.9,0,7.1,3.2,7.1,7.1s-3.2,7.1-7.1,7.1s-7.1-3.2-7.1-7.1
	S19.7,501.3,23.6,501.3z M131.9,447.7c-5.6,0-10.1-4.5-10.1-10.1c0-5.6,4.5-10.1,10.1-10.1c5.6,0,10.1,4.5,10.1,10.1
	C142,443.1,137.4,447.7,131.9,447.7z M131.9,532.7c5.6,0,10.1-4.5,10.1-10.1c0-5.6-4.5-10.1-10.1-10.1c-5.6,0-10.1,4.5-10.1,10.1
	C121.7,528.2,126.3,532.7,131.9,532.7z"/>
<path class="st0" d="M209.1,536h120.3c0,0,0,0,0,0h57.5c5.4,0,9.8-5.4,9.8-12v-88c0-6.6-4.4-12-9.8-12H266.6c0,0,0,0,0,0h-57.5
	c-5.4,0-9.8,5.4-9.8,12v88C199.3,530.6,203.7,536,209.1,536z M278,473c3.8,0.1,6.9,3.2,6.9,7.1c0,3.8-3.1,7-6.9,7.1
	c-3.8-0.1-6.9-3.2-6.9-7.1C271.1,476.2,274.2,473.1,278,473z M375,515.5c-3.9,0-7.1-3.2-7.1-7.1c0-3.9,3.2-7.1,7.1-7.1
	s7.1,3.2,7.1,7.1C382.1,512.3,378.9,515.5,375,515.5z M375,444.6c3.9,0,7.1,3.2,7.1,7.1s-3.2,7.1-7.1,7.1s-7.1-3.2-7.1-7.1
	S371.1,444.6,375,444.6z M347.2,487.1c-3.9,0-7.1-3.2-7.1-7.1c0-3.9,3.2-7.1,7.1-7.1s7.1,3.2,7.1,7.1
	C354.3,484,351.1,487.1,347.2,487.1z M278,515.5c-3.9,0-7.1-3.2-7.1-7.1c0-3.9,3.2-7.1,7.1-7.1s7.1,3.2,7.1,7.1
	C285.1,512.3,281.9,515.5,278,515.5z M278,444.6c3.9,0,7.1,3.2,7.1,7.1s-3.2,7.1-7.1,7.1s-7.1-3.2-7.1-7.1S274.1,444.6,278,444.6z
	 M375,473c3.9,0,7.1,3.2,7.1,7.1s-3.2,7.1-7.1,7.1c-3.9,0-7.1-3.2-7.1-7.1S371.1,473,375,473z M221.1,444.6c3.9,0,7.1,3.2,7.1,7.1
	c0,3.9-3.2,7.1-7.1,7.1s-7.1-3.2-7.1-7.1C214,447.8,217.2,444.6,221.1,444.6z M221.1,473c3.9,0,7.1,3.2,7.1,7.1s-3.2,7.1-7.1,7.1
	c-3.9,0-7.1-3.2-7.1-7.1S217.2,473,221.1,473z M221.1,501.3c3.9,0,7.1,3.2,7.1,7.1s-3.2,7.1-7.1,7.1s-7.1-3.2-7.1-7.1
	S217.2,501.3,221.1,501.3z M329.3,447.7c-5.6,0-10.1-4.5-10.1-10.1c0-5.6,4.5-10.1,10.1-10.1c5.6,0,10.1,4.5,10.1,10.1
	C339.4,443.1,334.9,447.7,329.3,447.7z M329.3,532.7c5.6,0,10.1-4.5,10.1-10.1c0-5.6-4.5-10.1-10.1-10.1c-5.6,0-10.1,4.5-10.1,10.1
	C319.2,528.2,323.7,532.7,329.3,532.7z"/>
<path class="st0" d="M432.5,298.9v117.7c0,6.6,5.4,12,12,12h117.7c6.6,0,12-5.4,12-12V298.9c0-6.6-5.4-12-12-12H444.5
	C437.9,286.9,432.5,292.3,432.5,298.9z M512.8,414.5v7.1h-19v-7.1H512.8z M458.1,410.4c-5.6,0-10.1-4.5-10.1-10.1
	s4.5-10.1,10.1-10.1s10.1,4.5,10.1,10.1S463.7,410.4,458.1,410.4z M555.6,400.3c0,3.9-3.2,7.1-7.1,7.1c-3.9,0-7.1-3.2-7.1-7.1
	s3.2-7.1,7.1-7.1C552.5,393.2,555.6,396.4,555.6,400.3z M510.4,386.1c0,3.9-3.2,7.1-7.1,7.1c-3.9,0-7.1-3.2-7.1-7.1
	c0-3.9,3.2-7.1,7.1-7.1C507.3,379,510.4,382.2,510.4,386.1z M538.8,357.8c0,3.9-3.2,7.1-7.1,7.1c-3.9,0-7.1-3.2-7.1-7.1
	c0-3.9,3.2-7.1,7.1-7.1C535.6,350.6,538.8,353.8,538.8,357.8z M510.4,357.8c0,3.9-3.2,7.1-7.1,7.1c-3.9,0-7.1-3.2-7.1-7.1
	c0-3.9,3.2-7.1,7.1-7.1C507.3,350.6,510.4,353.8,510.4,357.8z M482.1,357.8c0,3.9-3.2,7.1-7.1,7.1s-7.1-3.2-7.1-7.1
	c0-3.9,3.2-7.1,7.1-7.1S482.1,353.8,482.1,357.8z M510.4,329.4c0,3.9-3.2,7.1-7.1,7.1c-3.9,0-7.1-3.2-7.1-7.1s3.2-7.1,7.1-7.1
	C507.3,322.3,510.4,325.5,510.4,329.4z M555.6,315.2c0,3.9-3.2,7.1-7.1,7.1c-3.9,0-7.1-3.2-7.1-7.1s3.2-7.1,7.1-7.1
	C552.5,308.2,555.6,311.3,555.6,315.2z M468.2,315.2c0,5.6-4.5,10.1-10.1,10.1s-10.1-4.5-10.1-10.1s4.5-10.1,10.1-10.1
	S468.2,309.7,468.2,315.2z M512.8,294v7.1h-19V294H512.8z"/>
<path class="st0" d="M432.5,157.2v117.7c0,6.6,5.4,12,12,12h117.7c6.6,0,12-5.4,12-12V157.2c0-6.6-5.4-12-12-12H444.5
	C437.9,145.2,432.5,150.6,432.5,157.2z M512.8,272.7v7.1h-19v-7.1H512.8z M458.1,268.7c-5.6,0-10.1-4.5-10.1-10.1
	c0-5.6,4.5-10.1,10.1-10.1s10.1,4.5,10.1,10.1C468.2,264.1,463.7,268.7,458.1,268.7z M555.6,258.5c0,3.9-3.2,7.1-7.1,7.1
	c-3.9,0-7.1-3.2-7.1-7.1c0-3.9,3.2-7.1,7.1-7.1C552.5,251.5,555.6,254.6,555.6,258.5z M510.4,244.4c0,3.9-3.2,7.1-7.1,7.1
	c-3.9,0-7.1-3.2-7.1-7.1c0-3.9,3.2-7.1,7.1-7.1C507.3,237.3,510.4,240.4,510.4,244.4z M538.8,216c0,3.9-3.2,7.1-7.1,7.1
	c-3.9,0-7.1-3.2-7.1-7.1c0-3.9,3.2-7.1,7.1-7.1C535.6,208.9,538.8,212.1,538.8,216z M510.4,216c0,3.9-3.2,7.1-7.1,7.1
	c-3.9,0-7.1-3.2-7.1-7.1c0-3.9,3.2-7.1,7.1-7.1C507.3,208.9,510.4,212.1,510.4,216z M482.1,216c0,3.9-3.2,7.1-7.1,7.1
	s-7.1-3.2-7.1-7.1c0-3.9,3.2-7.1,7.1-7.1S482.1,212.1,482.1,216z M510.4,187.7c0,3.9-3.2,7.1-7.1,7.1c-3.9,0-7.1-3.2-7.1-7.1
	s3.2-7.1,7.1-7.1C507.3,180.6,510.4,183.8,510.4,187.7z M555.6,173.5c0,3.9-3.2,7.1-7.1,7.1c-3.9,0-7.1-3.2-7.1-7.1s3.2-7.1,7.1-7.1
	C552.5,166.4,555.6,169.6,555.6,173.5z M468.2,173.5c0,5.6-4.5,10.1-10.1,10.1s-10.1-4.5-10.1-10.1s4.5-10.1,10.1-10.1
	S468.2,167.9,468.2,173.5z M512.8,152.2v7.1h-19v-7.1H512.8z"/>
<path class="st0" d="M432.5,15.4v117.7c0,6.6,5.4,12,12,12h117.7c6.6,0,12-5.4,12-12V15.4c0-6.6-5.4-12-12-12H444.5
	C437.9,3.4,432.5,8.8,432.5,15.4z M512.8,131v7.1h-19V131H512.8z M458.1,126.9c-5.6,0-10.1-4.5-10.1-10.1s4.5-10.1,10.1-10.1
	s10.1,4.5,10.1,10.1S463.7,126.9,458.1,126.9z M555.6,116.8c0,3.9-3.2,7.1-7.1,7.1c-3.9,0-7.1-3.2-7.1-7.1s3.2-7.1,7.1-7.1
	C552.5,109.7,555.6,112.9,555.6,116.8z M510.4,102.6c0,3.9-3.2,7.1-7.1,7.1c-3.9,0-7.1-3.2-7.1-7.1c0-3.9,3.2-7.1,7.1-7.1
	C507.3,95.5,510.4,98.7,510.4,102.6z M538.8,74.3c0,3.9-3.2,7.1-7.1,7.1c-3.9,0-7.1-3.2-7.1-7.1c0-3.9,3.2-7.1,7.1-7.1
	C535.6,67.2,538.8,70.4,538.8,74.3z M510.4,74.3c0,3.9-3.2,7.1-7.1,7.1c-3.9,0-7.1-3.2-7.1-7.1c0-3.9,3.2-7.1,7.1-7.1
	C507.3,67.2,510.4,70.4,510.4,74.3z M482.1,74.3c0,3.9-3.2,7.1-7.1,7.1s-7.1-3.2-7.1-7.1c0-3.9,3.2-7.1,7.1-7.1
	S482.1,70.4,482.1,74.3z M510.4,45.9c0,3.9-3.2,7.1-7.1,7.1c-3.9,0-7.1-3.2-7.1-7.1s3.2-7.1,7.1-7.1C507.3,38.8,510.4,42,510.4,45.9
	z M555.6,31.8c0,3.9-3.2,7.1-7.1,7.1c-3.9,0-7.1-3.2-7.1-7.1s3.2-7.1,7.1-7.1C552.5,24.7,555.6,27.9,555.6,31.8z M468.2,31.8
	c0,5.6-4.5,10.1-10.1,10.1S448,37.4,448,31.8s4.5-10.1,10.1-10.1S468.2,26.2,468.2,31.8z M512.8,10.5v7.1h-19v-7.1H512.8z"/>
</svg>
